<?xml version="1.0" encoding="UTF-8" standalone="no"?>
<svg
   xmlns:dc="http://purl.org/dc/elements/1.1/"
   xmlns:cc="http://creativecommons.org/ns#"
   xmlns:rdf="http://www.w3.org/1999/02/22-rdf-syntax-ns#"
   xmlns:svg="http://www.w3.org/2000/svg"
   xmlns="http://www.w3.org/2000/svg"
   xmlns:sodipodi="http://sodipodi.sourceforge.net/DTD/sodipodi-0.dtd"
   xmlns:inkscape="http://www.inkscape.org/namespaces/inkscape"
   enable-background="new 0 0 515.91 728.5"
   height="512"
   id="Layer_1"
   version="1.1"
   viewBox="0 0 512.00003 512"
   width="512"
   xml:space="preserve"
   inkscape:version="0.91 r13725"
   sodipodi:docname="logo.svg"><metadata
     id="metadata14"><rdf:RDF><cc:Work
         rdf:about=""><dc:format>image/svg+xml</dc:format><dc:type
           rdf:resource="http://purl.org/dc/dcmitype/StillImage" /><dc:title></dc:title></cc:Work></rdf:RDF></metadata><sodipodi:namedview
     pagecolor="#ffffff"
     bordercolor="#666666"
     borderopacity="1"
     objecttolerance="10"
     gridtolerance="10"
     guidetolerance="10"
     inkscape:pageopacity="0"
     inkscape:pageshadow="2"
     inkscape:window-width="1089"
     inkscape:window-height="702"
     id="namedview12"
     showgrid="false"
     inkscape:zoom="0.921875"
     inkscape:cx="310.42246"
     inkscape:cy="272.23057"
     inkscape:window-x="326"
     inkscape:window-y="351"
     inkscape:window-maximized="0"
     inkscape:current-layer="Layer_1" /><defs
     id="defs7" /><g
     id="g13352"
     transform="matrix(0.96001632,0,0,0.96001632,4422.7401,-40567.308)"><path
       d="m -4411.8438,43040.438 c -3.8472,6.411 -7.6216,12.872 -11.0624,19.5 -23.0461,40.158 -47.3242,79.647 -68.2813,120.843 -2.9205,9.722 3.3011,21.917 14.0625,22.781 18.8235,4.355 38.296,0.08 57.4062,1.657 72.0722,-0.473 144.2986,1.383 216.2813,-1.063 9.6053,-2.106 17.7081,-12.603 13.75,-22.375 -4.9864,-18.679 -18.595,-33.031 -26.5313,-50.312 -17.1329,-30.529 -35.4655,-60.527 -52.75,-91.031 l -39.9374,0 c 0.027,0.441 0.031,0.865 0.031,1.312 0,14.034 -11.3723,25.406 -25.4062,25.406 -14.0338,0 -25.4063,-11.372 -25.4063,-25.406 0,-0.447 0.041,-0.87 0.062,-1.312 l -52.2188,0 z m 98.6563,65.718 c 7.147,0 12.9375,5.822 12.9375,12.969 0,7.147 -5.7905,12.937 -12.9375,12.937 -7.147,0 -12.9375,-5.79 -12.9375,-12.937 0,-7.147 5.7905,-12.969 12.9375,-12.969 z m -89.125,13.25 c 18.7118,0 33.875,15.195 33.875,33.906 0,18.711 -15.1632,33.876 -33.875,33.876 -18.7118,0 -33.9063,-15.164 -33.9063,-33.876 0,-18.711 15.1945,-33.906 33.9063,-33.906 z m 147.375,23.75 c 11.2271,0 20.3125,9.117 20.3125,20.344 0,11.227 -9.0854,20.281 -20.3125,20.281 -11.2271,0 -20.3437,-9.054 -20.3437,-20.281 0,-11.227 9.1166,-20.344 20.3437,-20.344 z"
       id="path13329"
       style="fill:#00b5ad;fill-opacity:1;stroke:none"
       transform="translate(0,-448)" /><path
       d="m -4334.281,42568.35 c 13.5863,0 24.6885,10.672 25.3825,24.086 l -50.738,0 c 0.6941,-13.414 11.7693,-24.086 25.3555,-24.086 z"
       id="path13331"
       style="fill:#00b5ad;fill-opacity:1;stroke:none" /><path
       d="m -5428.6193,43021.48 c 0,28.152 -22.8214,50.973 -50.973,50.973 -28.1516,0 -50.9729,-22.821 -50.9729,-50.973 0,-28.151 22.8213,-50.972 50.9729,-50.972 28.1516,0 50.973,22.821 50.973,50.972 z"
       id="path13333"
       style="fill:#00b5ad;fill-opacity:1;stroke:none"
       transform="matrix(-0.3542801,0,0,0.3542801,-6357.5411,27033.298)" /><path
       d="m -4250.2052,42347.806 c 5.7725,0 10.4199,4.646 10.4199,10.42 0,5.773 -4.6474,10.42 -10.4199,10.42 l -8.6291,0 0,175.292 92.8837,160.885 c 11.0264,19.094 13.8892,41.193 3.5819,59.046 -10.3183,17.877 -30.9032,26.349 -52.9137,26.349 l -249.9962,0 c -22.0103,0 -42.5953,-8.472 -52.9136,-26.349 -10.3073,-17.853 -7.4446,-39.952 3.5819,-59.046 l 92.8837,-160.885 0,-175.292 -8.629,0 c -5.7727,0 -10.42,-4.647 -10.42,-10.42 0,-5.774 4.6473,-10.42 10.42,-10.42 61.8871,0 126.763,0 180.1504,0 z m -29.4689,20.84 -121.2128,0 0,178.114 c -0.01,1.821 -0.4965,3.637 -1.411,5.21 l -94.2675,163.273 c -8.3992,14.545 -9.307,28.29 -3.5819,38.206 0.01,0 0.018,0 0.027,0 5.7134,9.898 18.0195,15.929 34.8415,15.929 l 249.9963,0 c 16.8224,0 29.1554,-6.031 34.8688,-15.929 5.7249,-9.916 4.8173,-23.661 -3.5819,-38.206 l -94.2677,-163.273 c -0.9144,-1.573 -1.4064,-3.389 -1.4109,-5.21 z"
       id="path13335"
       style="font-size:medium;font-style:normal;font-variant:normal;font-weight:normal;font-stretch:normal;text-indent:0;text-align:start;text-decoration:none;line-height:normal;letter-spacing:normal;word-spacing:normal;text-transform:none;direction:ltr;block-progression:tb;writing-mode:lr-tb;text-anchor:start;baseline-shift:baseline;color:#2d2d2d;fill:#555555;fill-opacity:1;stroke:none;stroke-width:24;marker:none;visibility:visible;display:inline;overflow:visible;enable-background:accumulate;font-family:Sans;-inkscape-font-specification:Sans" /><path
       d="m -5428.6193,43021.48 c 0,28.152 -22.8214,50.973 -50.973,50.973 -28.1516,0 -50.9729,-22.821 -50.9729,-50.973 0,-28.151 22.8213,-50.972 50.9729,-50.972 28.1516,0 50.973,22.821 50.973,50.972 z"
       id="path13337"
       style="fill:#00b5ad;fill-opacity:1;stroke:none"
       transform="matrix(-0.36926071,0,0,0.36926071,-6389.5193,26620.287)" /><path
       d="m -5428.6193,43021.48 c 0,28.152 -22.8214,50.973 -50.973,50.973 -28.1516,0 -50.9729,-22.821 -50.9729,-50.973 0,-28.151 22.8213,-50.972 50.9729,-50.972 28.1516,0 50.973,22.821 50.973,50.972 z"
       id="path13339"
       style="fill:#00b5ad;fill-opacity:1;stroke:none"
       transform="matrix(-0.56901094,0,0,0.56901094,-7394.7203,17827.529)" /><path
       d="m -5428.6193,43021.48 c 0,28.152 -22.8214,50.973 -50.973,50.973 -28.1516,0 -50.9729,-22.821 -50.9729,-50.973 0,-28.151 22.8213,-50.972 50.9729,-50.972 28.1516,0 50.973,22.821 50.973,50.972 z"
       id="path13347"
       style="fill:#00b5ad;fill-opacity:1;stroke:none"
       transform="matrix(-0.51349147,0,0,0.51349147,-7153.3784,20324.102)" /></g></svg>