<?xml version="1.0" encoding="UTF-8" standalone="no"?>
<svg
   xmlns:osb="http://www.openswatchbook.org/uri/2009/osb"
   xmlns:dc="http://purl.org/dc/elements/1.1/"
   xmlns:cc="http://creativecommons.org/ns#"
   xmlns:rdf="http://www.w3.org/1999/02/22-rdf-syntax-ns#"
   xmlns:svg="http://www.w3.org/2000/svg"
   xmlns="http://www.w3.org/2000/svg"
   xmlns:sodipodi="http://sodipodi.sourceforge.net/DTD/sodipodi-0.dtd"
   xmlns:inkscape="http://www.inkscape.org/namespaces/inkscape"
   enable-background="new 0 0 515.91 728.5"
   height="512"
   id="Layer_1"
   version="1.1"
   viewBox="0 0 512.00003 512"
   width="512"
   xml:space="preserve"
   inkscape:version="0.91 r13725"
   sodipodi:docname="logo.svg"><metadata
     id="metadata14"><rdf:RDF><cc:Work
         rdf:about=""><dc:format>image/svg+xml</dc:format><dc:type
           rdf:resource="http://purl.org/dc/dcmitype/StillImage" /><dc:title /></cc:Work></rdf:RDF></metadata><sodipodi:namedview
     pagecolor="#ffffff"
     bordercolor="#666666"
     borderopacity="1"
     objecttolerance="10"
     gridtolerance="10"
     guidetolerance="10"
     inkscape:pageopacity="0"
     inkscape:pageshadow="2"
     inkscape:window-width="1089"
     inkscape:window-height="702"
     id="namedview12"
     showgrid="false"
     inkscape:zoom="0.65186406"
     inkscape:cx="263.64281"
     inkscape:cy="136.58835"
     inkscape:window-x="326"
     inkscape:window-y="374"
     inkscape:window-maximized="0"
     inkscape:current-layer="Layer_1" /><defs
     id="defs7"><linearGradient
       id="linearGradient5650"
       osb:paint="solid"><stop
         style="stop-color:#000000;stop-opacity:1;"
         offset="0"
         id="stop5652" /></linearGradient><linearGradient
       id="linearGradient5642"
       osb:paint="solid"><stop
         style="stop-color:#000000;stop-opacity:1;"
         offset="0"
         id="stop5644" /></linearGradient><linearGradient
       id="linearGradient5608"
       osb:paint="solid"><stop
         style="stop-color:#ff6900;stop-opacity:1;"
         offset="0"
         id="stop5610" /></linearGradient><linearGradient
       inkscape:collect="always"
       id="linearGradient4154"
       osb:paint="gradient"><stop
         style="stop-color:#555555;stop-opacity:1;"
         offset="0"
         id="stop4156" /><stop
         style="stop-color:#555555;stop-opacity:0;"
         offset="1"
         id="stop4158" /></linearGradient></defs><g
     id="g13352"
     transform="matrix(0.96001632,0,0,0.96001632,4422.7401,-40567.308)"><path
       d="m -4411.8438,43040.438 c -3.8472,6.411 -7.6216,12.872 -11.0624,19.5 -23.0461,40.158 -47.3242,79.647 -68.2813,120.843 -2.9205,9.722 3.3011,21.917 14.0625,22.781 18.8235,4.355 38.296,0.08 57.4062,1.657 72.0722,-0.473 144.2986,1.383 216.2813,-1.063 9.6053,-2.106 17.7081,-12.603 13.75,-22.375 -4.9864,-18.679 -18.595,-33.031 -26.5313,-50.312 -17.1329,-30.529 -35.4655,-60.527 -52.75,-91.031 l -39.9374,0 c 0.027,0.441 0.031,0.865 0.031,1.312 0,14.034 -11.3723,25.406 -25.4062,25.406 -14.0338,0 -25.4063,-11.372 -25.4063,-25.406 0,-0.447 0.041,-0.87 0.062,-1.312 l -52.2188,0 z m 98.6563,65.718 c 7.147,0 12.9375,5.822 12.9375,12.969 0,7.147 -5.7905,12.937 -12.9375,12.937 -7.147,0 -12.9375,-5.79 -12.9375,-12.937 0,-7.147 5.7905,-12.969 12.9375,-12.969 z m -89.125,13.25 c 18.7118,0 33.875,15.195 33.875,33.906 0,18.711 -15.1632,33.876 -33.875,33.876 -18.7118,0 -33.9063,-15.164 -33.9063,-33.876 0,-18.711 15.1945,-33.906 33.9063,-33.906 z m 147.375,23.75 c 11.2271,0 20.3125,9.117 20.3125,20.344 0,11.227 -9.0854,20.281 -20.3125,20.281 -11.2271,0 -20.3437,-9.054 -20.3437,-20.281 0,-11.227 9.1166,-20.344 20.3437,-20.344 z"
       id="path13329"
       style="fill:#00b5ad;fill-opacity:1;stroke:none"
       transform="translate(0,-448)" /><path
       d="m -4334.281,42568.35 c 13.5863,0 24.6885,10.672 25.3825,24.086 l -50.738,0 c 0.6941,-13.414 11.7693,-24.086 25.3555,-24.086 z"
       id="path13331"
       style="fill:#00b5ad;fill-opacity:1;stroke:none" /><path
       d="m -5428.6193,43021.48 c 0,28.152 -22.8214,50.973 -50.973,50.973 -28.1516,0 -50.9729,-22.821 -50.9729,-50.973 0,-28.151 22.8213,-50.972 50.9729,-50.972 28.1516,0 50.973,22.821 50.973,50.972 z"
       id="path13333"
       style="fill:#00b5ad;fill-opacity:1;stroke:none"
       transform="matrix(-0.3542801,0,0,0.3542801,-6357.5411,27033.298)" /><path
       d="m -4250.2052,42347.806 c 5.7725,0 10.4199,4.646 10.4199,10.42 0,5.773 -4.6474,10.42 -10.4199,10.42 l -8.6291,0 0,175.292 92.8837,160.885 c 11.0264,19.094 13.8892,41.193 3.5819,59.046 -10.3183,17.877 -30.9032,26.349 -52.9137,26.349 l -249.9962,0 c -22.0103,0 -42.5953,-8.472 -52.9136,-26.349 -10.3073,-17.853 -7.4446,-39.952 3.5819,-59.046 l 92.8837,-160.885 0,-175.292 -8.629,0 c -5.7727,0 -10.42,-4.647 -10.42,-10.42 0,-5.774 4.6473,-10.42 10.42,-10.42 61.8871,0 126.763,0 180.1504,0 z m -29.4689,20.84 -121.2128,0 0,178.114 c -0.01,1.821 -0.4965,3.637 -1.411,5.21 l -94.2675,163.273 c -8.3992,14.545 -9.307,28.29 -3.5819,38.206 0.01,0 0.018,0 0.027,0 5.7134,9.898 18.0195,15.929 34.8415,15.929 l 249.9963,0 c 16.8224,0 29.1554,-6.031 34.8688,-15.929 5.7249,-9.916 4.8173,-23.661 -3.5819,-38.206 l -94.2677,-163.273 c -0.9144,-1.573 -1.4064,-3.389 -1.4109,-5.21 z"
       id="path13335"
       style="font-size:medium;font-style:normal;font-variant:normal;font-weight:normal;font-stretch:normal;text-indent:0;text-align:start;text-decoration:none;line-height:normal;letter-spacing:normal;word-spacing:normal;text-transform:none;direction:ltr;block-progression:tb;writing-mode:lr-tb;text-anchor:start;baseline-shift:baseline;color:#2d2d2d;fill:#999999;fill-opacity:1;marker:none;visibility:visible;display:inline;overflow:visible;enable-background:accumulate;font-family:Sans;-inkscape-font-specification:Sans;stroke:none" /><path
       d="m -5428.6193,43021.48 c 0,28.152 -22.8214,50.973 -50.973,50.973 -28.1516,0 -50.9729,-22.821 -50.9729,-50.973 0,-28.151 22.8213,-50.972 50.9729,-50.972 28.1516,0 50.973,22.821 50.973,50.972 z"
       id="path13337"
       style="fill:#00b5ad;fill-opacity:1;stroke:none"
       transform="matrix(-0.36926071,0,0,0.36926071,-6389.5193,26620.287)" /><path
       d="m -5428.6193,43021.48 c 0,28.152 -22.8214,50.973 -50.973,50.973 -28.1516,0 -50.9729,-22.821 -50.9729,-50.973 0,-28.151 22.8213,-50.972 50.9729,-50.972 28.1516,0 50.973,22.821 50.973,50.972 z"
       id="path13339"
       style="fill:#00b5ad;fill-opacity:1;stroke:none"
       transform="matrix(-0.56901094,0,0,0.56901094,-7394.7203,17827.529)" /><path
       d="m -5428.6193,43021.48 c 0,28.152 -22.8214,50.973 -50.973,50.973 -28.1516,0 -50.9729,-22.821 -50.9729,-50.973 0,-28.151 22.8213,-50.972 50.9729,-50.972 28.1516,0 50.973,22.821 50.973,50.972 z"
       id="path13347"
       style="fill:#00b5ad;fill-opacity:1;stroke:none"
       transform="matrix(-0.51349147,0,0,0.51349147,-7153.3784,20324.102)" /></g><path
     style="fill:#ffffff;fill-opacity:1;stroke:none;stroke-width:1.60000002;stroke-miterlimit:4;stroke-dasharray:none;stroke-opacity:1"
     d="m 125.33197,490.50401 c -10.79011,-2.12962 -19.29151,-7.86025 -22.98771,-15.49559 -2.853998,-5.89558 -2.987047,-17.39622 -0.29065,-25.12374 1.04089,-2.98305 23.11309,-42.03389 49.04933,-86.77966 l 47.15681,-81.35593 0.29617,-87.05085 0.29617,-87.05084 57.46654,0 57.46654,0 0,86.79415 0,86.79416 46.87496,81.07026 c 27.10714,46.88181 47.9094,84.04368 49.32792,88.12109 6.93332,19.92916 -2.14553,35.51065 -23.30712,40.00067 -6.86416,1.45642 -253.99076,1.52856 -261.34896,0.0763 l 0,2e-5 z M 373.37086,480.084 c 14.31869,-0.61976 16.99788,-1.02397 19.94327,-3.00886 5.12443,-3.45335 8.33842,-8.88758 8.3172,-14.06273 -0.0259,-6.33319 -5.77315,-19.4674 -15.78568,-36.0755 -4.73157,-7.8484 -15.56991,-26.39755 -24.08521,-41.22034 -8.51531,-14.82279 -20.30127,-35.24883 -26.19102,-45.39121 l -10.70866,-18.44068 -18.85103,-0.29521 -18.85105,-0.29521 -1.89923,-5.34743 c -2.55401,-7.19096 -6.61787,-11.75511 -13.19266,-14.81673 -6.76463,-3.15002 -13.6103,-3.25445 -20.11213,-0.30681 -7.852,3.55976 -12.5024,9.17965 -14.5108,17.53597 l -0.71697,2.98305 -24.79475,0 -24.79473,0 -15.73437,27.38983 c -8.65391,15.06441 -21.82549,37.92139 -29.2702,50.79329 -19.32978,33.4212 -31.34398,56.25616 -31.9761,60.77582 -0.69764,4.98811 2.78136,13.11864 6.71671,15.69718 6.90931,4.52715 9.22496,4.61299 127.04434,4.70925 62.10175,0.0508 120.35564,-0.22991 129.45307,-0.62368 z M 236.17495,257.22445 c 8.3994,-2.33194 14.78134,-12.31628 13.20505,-20.65886 -1.78429,-9.44345 -8.51061,-15.0094 -18.14628,-15.01583 -10.26862,-0.007 -17.23944,6.38647 -18.08535,16.58708 -0.71095,8.57313 4.19075,16.18198 12.23002,18.9845 4.30672,1.50134 5.71194,1.51476 10.79656,0.10316 l 0,-5e-5 z m 30.18744,-81.61606 c 9.74627,-4.08421 15.34061,-12.64605 15.34611,-23.48642 0.0136,-26.76076 -35.68998,-35.52944 -47.5728,-11.68372 -6.4299,12.90313 -1.58798,27.70704 11.28985,34.51806 4.61883,2.44289 15.83011,2.79206 20.93684,0.65208 z"
     id="path4140"
     inkscape:connector-curvature="0" /><path
     style="fill:#ffffff;fill-opacity:1;stroke:none;stroke-width:1.60000002;stroke-miterlimit:4;stroke-dasharray:none;stroke-opacity:1"
     d="m 187.95466,461.40935 c -14.3943,-4.73657 -23.12235,-16.20803 -23.21176,-30.50772 -0.055,-8.80542 1.62755,-13.75936 6.96811,-20.51568 11.13569,-14.0877 32.04452,-15.8113 45.46223,-3.74764 7.62012,6.85115 10.07396,11.98663 10.69473,22.38235 0.46511,7.78886 0.2442,8.94989 -2.92944,15.39647 -3.4627,7.03375 -7.89699,11.45864 -15.28895,15.25655 -4.18642,2.15094 -17.25545,3.19651 -21.69492,1.73567 z"
     id="path4142"
     inkscape:connector-curvature="0" /><path
     style="fill:#ffffff;fill-opacity:1;stroke:none;stroke-width:1.60000002;stroke-miterlimit:4;stroke-dasharray:none;stroke-opacity:1"
     d="m 253.78116,345.86936 c -8.45711,-3.14846 -15.84199,-12.6483 -15.90437,-20.45925 l -0.0238,-2.98305 24.00723,0 24.00724,0 -0.58194,4.33866 c -1.92494,14.35152 -18.03266,24.11894 -31.50434,19.10364 z"
     id="path4144"
     inkscape:connector-curvature="0" /><path
     style="fill:#ffffff;fill-opacity:1;stroke:none;stroke-width:1.60000002;stroke-miterlimit:4;stroke-dasharray:none;stroke-opacity:1"
     d="m 275.13247,407.28429 c -7.64907,-6.19598 -5.80375,-17.82023 3.30621,-20.82679 2.01873,-0.66624 4.88643,-0.90615 6.37265,-0.53313 3.19263,0.8013 7.81379,5.45573 8.86268,8.9265 1.04458,3.45648 -1.23068,9.58167 -4.52043,12.16939 -3.49091,2.74596 -10.7875,2.88336 -14.02111,0.26403 z"
     id="path4146"
     inkscape:connector-curvature="0" /><path
     style="fill:#ffffff;fill-opacity:1;stroke:none;stroke-width:1.60000002;stroke-miterlimit:4;stroke-dasharray:none;stroke-opacity:1"
     d="m 329.21364,456.80689 c -6.06282,-3.00104 -10.00474,-9.5269 -10.00474,-16.5629 0,-6.16419 1.8739,-10.07515 6.97224,-14.55156 13.50129,-11.85428 35.18379,2.13337 30.02057,19.36665 -3.59527,11.99995 -15.77116,17.30007 -26.98807,11.74781 z"
     id="path4148"
     inkscape:connector-curvature="0" /><path
     style="fill:#ffffff;fill-opacity:1;stroke:none;stroke-width:1.60000002;stroke-miterlimit:4;stroke-dasharray:none;stroke-opacity:1"
     d="m 252.49704,345.40656 c -7.95802,-3.77605 -14.56285,-12.80963 -14.62025,-19.99645 l -0.0238,-2.98305 24.00723,0 24.00724,0 -0.58194,4.33866 c -0.87739,6.54141 -5.53505,13.61373 -11.12195,16.88787 -6.55512,3.84156 -15.70472,4.58182 -21.66651,1.75297 z"
     id="path4150"
     inkscape:connector-curvature="0" /><path
     style="fill:#ffffff;fill-opacity:1;stroke:none;stroke-width:1.60000002;stroke-miterlimit:4;stroke-dasharray:none;stroke-opacity:1"
     d="m 252.49704,345.33815 c -7.8953,-3.6218 -14.5626,-12.70963 -14.62025,-19.92804 l -0.0238,-2.98305 24.00723,0 24.00724,0 -0.59664,4.44824 c -2.01269,15.00573 -19.20142,24.68887 -32.77376,18.46285 z"
     id="path4152"
     inkscape:connector-curvature="0" /></svg>